<?xml version="1.0" encoding="UTF-8"?>
<svg width="21px" height="22px" viewBox="0 0 21 22" version="1.1" xmlns="http://www.w3.org/2000/svg" xmlns:xlink="http://www.w3.org/1999/xlink">
    <title>Shape</title>
    <g id="Page-1" stroke="none" stroke-width="1" fill="none" fill-rule="evenodd">
        <g id="􂇏-􀴊-􀦇-􀨨-􀏃-􀥄" transform="translate(-2, -49)" fill="#000000" fill-rule="nonzero">
            <path d="M7.27539063,66.4042969 C7.02799479,66.514974 6.78710938,66.5524089 6.55273438,66.5166016 C6.31835938,66.4807943 6.11002604,66.3717448 5.92773438,66.1894531 L4.54101563,64.7929688 C4.35221354,64.6041667 4.24316406,64.3942057 4.21386719,64.1630859 C4.18457031,63.9319661 4.22200521,63.6927083 4.32617188,63.4453125 L5.69335938,60.203125 C5.74544271,60.0859375 5.79589844,59.9931641 5.84472656,59.9248047 C5.89355469,59.8564453 5.95377604,59.7864583 6.02539063,59.7148438 L15.3808594,50.4375 C15.8365885,49.9817708 16.319987,49.7587891 16.8310547,49.7685547 C17.3421224,49.7783203 17.8320312,50.0143229 18.3007812,50.4765625 L20.3515625,52.546875 C20.8138021,53.015625 21.0465495,53.5039062 21.0498393,54.0117188 C21.0530599,54.5195312 20.8268229,55.0013021 20.3710938,55.4570312 L11.0253906,64.7441406 C10.9472656,64.8157552 10.8740234,64.8759766 10.8056641,64.9248047 C10.7373047,64.9736328 10.641276,65.0208333 10.5175781,65.0664062 L7.27539063,66.4042969 Z M7.12890625,64.890625 L9.97070312,63.7089844 L19.2773438,54.4707031 C19.5768229,54.1777344 19.5865885,53.8880208 19.3066406,53.6015625 L17.2460938,51.5214844 C17.1158854,51.3847656 16.9726562,51.3196615 16.8164062,51.3261719 C16.6601562,51.3326823 16.5104167,51.4042969 16.3671875,51.5410156 L7.06054687,60.7792969 L5.84960937,63.6113281 C5.81054687,63.702474 5.79427083,63.788737 5.80078125,63.8701172 C5.80729167,63.9514974 5.85611979,64.0345052 5.94726562,64.1191406 L6.61132812,64.7832031 C6.70247396,64.874349 6.78710937,64.9231771 6.86523437,64.9296875 C6.94335937,64.9361979 7.03125,64.9231771 7.12890625,64.890625 Z M3.46679688,66.8925781 C3.25195312,66.8925781 3.11523438,66.8160807 3.05664062,66.6630859 C2.99804688,66.5100911 3.04036458,66.3554688 3.18359375,66.1992188 L4.765625,64.5292969 L6.171875,65.9648438 L5.25390625,66.6679688 C5.14973958,66.7591146 5.05696615,66.8193359 4.97558594,66.8486328 C4.89420573,66.8779297 4.78515625,66.8925781 4.6484375,66.8925781 L3.46679688,66.8925781 Z M6.171875,60.7695312 L7.08984375,59.8515625 L11.0839844,63.875 L10.1660156,64.7929688 L6.171875,60.7695312 Z M14.2773438,52.7324219 L15.1953125,51.8242188 L19.1894531,55.8476562 L18.2714844,56.7460938 L14.2773438,52.7324219 Z M3.27148438,70.3789062 C3.05664062,70.3789062 2.87272135,70.3007812 2.71972656,70.1445312 C2.56673177,69.9882812 2.49023438,69.8027344 2.49023438,69.5878906 C2.49023438,69.3730469 2.56673177,69.1891276 2.71972656,69.0361328 C2.87272135,68.883138 3.05664062,68.8066406 3.27148438,68.8066406 L21.9335938,68.8066406 C22.1484375,68.8066406 22.3339844,68.883138 22.4902344,69.0361328 C22.6464844,69.1891276 22.7246094,69.3730469 22.7246094,69.5878906 C22.7246094,69.8027344 22.6464844,69.9882812 22.4902344,70.1445312 C22.3339844,70.3007812 22.1484375,70.3789062 21.9335938,70.3789062 L3.27148438,70.3789062 Z" id="Shape"></path>
        </g>
    </g>
</svg>