<?xml version="1.0" encoding="UTF-8"?>
<svg width="70px" height="16px" viewBox="0 0 70 16" version="1.1" xmlns="http://www.w3.org/2000/svg" xmlns:xlink="http://www.w3.org/1999/xlink">
    <title>uxnote-logo</title>
    <g id="Page-1" stroke="none" stroke-width="1" fill="none" fill-rule="evenodd">
        <g id="uxnote-logo" transform="translate(-1, -4)" fill="#000000" fill-rule="nonzero">
            <path d="M7.13867188,19.2441406 C10.8007812,19.2441406 13.203125,17.1640625 13.203125,14 L13.203125,6.55859375 C13.203125,5.3671875 12.5488281,4.69335938 11.40625,4.69335938 C10.2734375,4.69335938 9.61914062,5.3671875 9.61914062,6.55859375 L9.61914062,13.6191406 C9.61914062,15.2597656 8.73046875,16.2363281 7.13867188,16.2363281 C5.53710938,16.2363281 4.6484375,15.2597656 4.6484375,13.6191406 L4.6484375,6.55859375 C4.6484375,5.3671875 3.99414062,4.69335938 2.86132812,4.69335938 C1.72851562,4.69335938 1.06445312,5.3671875 1.06445312,6.55859375 L1.06445312,14 C1.06445312,17.1640625 3.46679688,19.2441406 7.13867188,19.2441406 Z" id="Path"></path>
            <path d="M16.4648438,19.2246094 C17.0898438,19.2246094 17.4121094,19.0292969 17.9394531,18.21875 L19.7167969,15.4941406 L19.7851562,15.4941406 L21.6308594,18.296875 C22.0410156,18.921875 22.34375,19.2246094 23.046875,19.2246094 C23.984375,19.2246094 24.6972656,18.6484375 24.6972656,17.6914062 C24.6972656,17.3007812 24.5703125,16.96875 24.3066406,16.6171875 L22.0996094,13.6386719 L24.2285156,10.8554688 C24.5996094,10.3867188 24.7265625,10.0449219 24.7265625,9.60546875 C24.7265625,8.71679688 24.0917969,8.140625 23.125,8.140625 C22.4707031,8.140625 22.0996094,8.42382812 21.6210938,9.1953125 L19.9902344,11.7636719 L19.921875,11.7636719 L18.2617188,9.18554688 C17.7734375,8.40429688 17.4023438,8.140625 16.6699219,8.140625 C15.7324219,8.140625 15.0292969,8.78515625 15.0292969,9.6640625 C15.0292969,10.0742188 15.1464844,10.4160156 15.4003906,10.7480469 L17.6074219,13.7167969 L15.4101562,16.6074219 C15.0488281,17.0761719 14.9121094,17.3984375 14.9121094,17.828125 C14.9121094,18.6582031 15.5566406,19.2246094 16.4648438,19.2246094 Z" id="Path"></path>
            <path d="M28.203125,19.2148438 C29.2675781,19.2148438 29.9023438,18.5800781 29.9023438,17.4375 L29.9023438,10.7285156 L29.9804688,10.7285156 L35.4101562,18.21875 C35.9277344,18.9316406 36.40625,19.2148438 37.1289062,19.2148438 C38.2128906,19.2148438 38.8183594,18.6191406 38.8183594,17.5351562 L38.8183594,6.47070312 C38.8183594,5.328125 38.1933594,4.69335938 37.1191406,4.69335938 C36.0546875,4.69335938 35.4199219,5.328125 35.4199219,6.47070312 L35.4199219,13.1015625 L35.3417969,13.1015625 L29.9511719,5.68945312 C29.4140625,4.98632812 28.9257812,4.69335938 28.2421875,4.69335938 C27.1289062,4.69335938 26.5039062,5.2890625 26.5039062,6.39257812 L26.5039062,17.4375 C26.5039062,18.5800781 27.1289062,19.2148438 28.203125,19.2148438 Z" id="Path"></path>
            <path d="M45.8300781,19.2539062 C49.1796875,19.2539062 51.2695312,17.2324219 51.2695312,13.6777344 C51.2695312,10.1914062 49.1503906,8.11132812 45.8300781,8.11132812 C42.5292969,8.11132812 40.390625,10.2011719 40.390625,13.6777344 C40.390625,17.2226562 42.4804688,19.2539062 45.8300781,19.2539062 Z M45.8300781,16.7148438 C44.6386719,16.7148438 43.90625,15.6308594 43.90625,13.6875 C43.90625,11.7734375 44.6582031,10.6503906 45.8300781,10.6503906 C47.0117188,10.6503906 47.7636719,11.7734375 47.7636719,13.6875 C47.7636719,15.6308594 47.0117188,16.7148438 45.8300781,16.7148438 Z" id="Shape"></path>
            <path d="M53.4765625,16.1484375 C53.4765625,18.1210938 54.5214844,19.1367188 56.5722656,19.1367188 L56.6601562,19.1367188 C57.9980469,19.1367188 59.0917969,18.6289062 59.0917969,17.6230469 C59.0917969,16.8222656 58.6425781,16.4804688 57.8710938,16.3925781 L57.65625,16.3632812 C57.1679688,16.3144531 56.9433594,16.0507812 56.9433594,15.3867188 L56.9433594,10.9238281 L57.7832031,10.9238281 C58.5546875,10.9238281 59.0625,10.4160156 59.0625,9.64453125 C59.0625,8.87304688 58.5546875,8.36523438 57.7832031,8.36523438 L56.9433594,8.36523438 L56.9433594,7.515625 C56.9433594,6.39257812 56.3085938,5.71875 55.2148438,5.71875 C54.1113281,5.71875 53.4765625,6.39257812 53.4765625,7.515625 L53.4765625,8.36523438 L53.0957031,8.36523438 C52.3242188,8.36523438 51.8164062,8.86328125 51.8164062,9.64453125 C51.8164062,10.4160156 52.3242188,10.9238281 53.0957031,10.9238281 L53.4765625,10.9238281 L53.4765625,16.1484375 Z" id="Path"></path>
            <path d="M65.3222656,19.2539062 C67.4414062,19.2539062 69.1601562,18.5019531 69.8632812,17.2519531 C70.0195312,16.9980469 70.0976562,16.734375 70.0976562,16.4707031 C70.0976562,15.7089844 69.5019531,15.2597656 68.7988281,15.2597656 C68.3691406,15.2597656 68.0859375,15.3769531 67.7246094,15.71875 C66.953125,16.5 66.2988281,16.8027344 65.3515625,16.8027344 C64.1015625,16.8027344 63.2519531,15.9238281 63.2519531,14.6347656 L63.2519531,14.4394531 L69.0332031,14.4394531 C69.9316406,14.4394531 70.4296875,13.9511719 70.4296875,13.0722656 C70.4296875,10.2011719 68.3496094,8.11132812 65.1855469,8.11132812 C61.9433594,8.11132812 59.8925781,10.2890625 59.8925781,13.7363281 C59.8925781,17.1933594 61.9140625,19.2539062 65.3222656,19.2539062 Z M63.3007812,12.4667969 C63.3886719,11.3535156 64.1796875,10.5722656 65.2539062,10.5722656 C66.3378906,10.5722656 67.109375,11.3144531 67.1679688,12.4667969 L63.3007812,12.4667969 Z" id="Shape"></path>
        </g>
    </g>
</svg>