<?xml version="1.0" encoding="UTF-8"?>
<svg width="24px" height="19px" viewBox="0 0 24 19" version="1.1" xmlns="http://www.w3.org/2000/svg" xmlns:xlink="http://www.w3.org/1999/xlink">
    <title>Shape</title>
    <g id="Page-1" stroke="none" stroke-width="1" fill="none" fill-rule="evenodd">
        <g id="􂇏-􀴊-􀦇-􀨨-􀏃-􀥄" transform="translate(-2, -74)" fill="#000000" fill-rule="nonzero">
            <path d="M6.25,90.0429688 C5.94401042,90.0429688 5.72591146,89.9746094 5.59570312,89.8378906 C5.46549479,89.7011719 5.40039062,89.4765625 5.40039062,89.1640625 L5.40039062,87.0351562 C5.40039062,86.7226562 5.46549479,86.4980469 5.59570312,86.3613281 C5.72591146,86.2246094 5.94401042,86.15625 6.25,86.15625 L21.7578125,86.15625 C22.0638021,86.15625 22.2835286,86.2246094 22.4169922,86.3613281 C22.5504557,86.4980469 22.6171875,86.7226562 22.6171875,87.0351562 L22.6171875,89.1640625 C22.6171875,89.4765625 22.5504557,89.7011719 22.4169922,89.8378906 C22.2835286,89.9746094 22.0638021,90.0429688 21.7578125,90.0429688 L6.25,90.0429688 Z M5.55664062,92.9433594 C4.53450521,92.9433594 3.76790365,92.6910807 3.25683594,92.1865234 C2.74576823,91.6819661 2.49023438,90.9283854 2.49023438,89.9257812 L2.49023438,77.9921875 C2.49023438,76.9830729 2.74576823,76.226237 3.25683594,75.7216797 C3.76790365,75.2171224 4.53450521,74.9648438 5.55664062,74.9648438 L22.4511719,74.9648438 C23.4798177,74.9648438 24.2480469,75.21875 24.7558594,75.7265625 C25.2636719,76.234375 25.5175781,76.9895833 25.5175781,77.9921875 L25.5175781,89.9257812 C25.5175781,90.9283854 25.2636719,91.6819661 24.7558594,92.1865234 C24.2480469,92.6910807 23.4798177,92.9433594 22.4511719,92.9433594 L5.55664062,92.9433594 Z M5.57617188,91.3710938 L22.4316406,91.3710938 C22.9134115,91.3710938 23.2861328,91.242513 23.5498047,90.9853516 C23.8134766,90.7281901 23.9453125,90.3457031 23.9453125,89.8378906 L23.9453125,78.0800781 C23.9453125,77.5722656 23.8134766,77.188151 23.5498047,76.9277344 C23.2861328,76.6673177 22.9134115,76.5371094 22.4316406,76.5371094 L5.57617188,76.5371094 C5.08789062,76.5371094 4.71354167,76.6673177 4.453125,76.9277344 C4.19270833,77.188151 4.0625,77.5722656 4.0625,78.0800781 L4.0625,89.8378906 C4.0625,90.3457031 4.19270833,90.7281901 4.453125,90.9853516 C4.71354167,91.242513 5.08789062,91.3710938 5.57617188,91.3710938 Z" id="Shape"></path>
        </g>
    </g>
</svg>