<?xml version="1.0" encoding="UTF-8"?>
<svg width="25px" height="24px" viewBox="0 0 25 24" version="1.1" xmlns="http://www.w3.org/2000/svg" xmlns:xlink="http://www.w3.org/1999/xlink">
    <title>Shape</title>
    <g id="Page-1" stroke="none" stroke-width="1" fill="none" fill-rule="evenodd">
        <g id="􂇏-􀴊-􀦇-􀨨-􀏃-􀥄" transform="translate(-1, 0)" fill="#000000" fill-rule="nonzero">
            <path d="M13.6230469,13.6191406 C13.1608073,13.6191406 12.7685547,13.4580078 12.4462891,13.1357422 C12.1240234,12.8134766 11.9628906,12.421224 11.9628906,11.9589844 C11.9628906,11.4967448 12.1240234,11.1044922 12.4462891,10.7822266 C12.7685547,10.4599609 13.1608073,10.2988281 13.6230469,10.2988281 C14.0852865,10.2988281 14.4775391,10.4599609 14.7998047,10.7822266 C15.1220703,11.1044922 15.2832031,11.4967448 15.2832031,11.9589844 C15.2832031,12.421224 15.1220703,12.8134766 14.7998047,13.1357422 C14.4775391,13.4580078 14.0852865,13.6191406 13.6230469,13.6191406 Z M13.6230469,21.1679688 C12.3535156,21.1679688 11.1621094,20.9287109 10.0488281,20.4501953 C8.93554688,19.9716797 7.95572917,19.3092448 7.109375,18.4628906 C6.26302083,17.6165365 5.60058594,16.6367188 5.12207031,15.5234375 C4.64355469,14.4101562 4.40429688,13.2154948 4.40429688,11.9394531 C4.40429688,10.6699219 4.64355469,9.47688802 5.12207031,8.36035156 C5.60058594,7.2438151 6.26302083,6.2639974 7.109375,5.42089844 C7.95572917,4.57779948 8.93554688,3.91699219 10.0488281,3.43847656 C11.1621094,2.95996094 12.3535156,2.72070312 13.6230469,2.72070312 C14.8990885,2.72070312 16.09375,2.95996094 17.2070312,3.43847656 C18.3203125,3.91699219 19.3001302,4.57779948 20.1464844,5.42089844 C20.9928385,6.2639974 21.6552734,7.2438151 22.1337891,8.36035156 C22.6123047,9.47688802 22.8515625,10.6699219 22.8515625,11.9394531 C22.8515625,13.2154948 22.6123047,14.4101562 22.1337891,15.5234375 C21.6552734,16.6367188 20.9928385,17.6165365 20.1464844,18.4628906 C19.3001302,19.3092448 18.3203125,19.9716797 17.2070312,20.4501953 C16.09375,20.9287109 14.8990885,21.1679688 13.6230469,21.1679688 Z M13.6230469,19.5859375 C14.6777344,19.5859375 15.6673177,19.3873698 16.5917969,18.9902344 C17.516276,18.593099 18.3284505,18.0445964 19.0283203,17.3447266 C19.7281901,16.6448568 20.2766927,15.8326823 20.6738281,14.9082031 C21.0709635,13.983724 21.2695312,12.9941406 21.2695312,11.9394531 C21.2695312,10.8847656 21.0709635,9.89518229 20.6738281,8.97070312 C20.2766927,8.04622396 19.7281901,7.23404948 19.0283203,6.53417969 C18.3284505,5.8343099 17.516276,5.2874349 16.5917969,4.89355469 C15.6673177,4.49967448 14.6777344,4.30273438 13.6230469,4.30273438 C12.5683594,4.30273438 11.5804036,4.49967448 10.6591797,4.89355469 C9.73795573,5.2874349 8.92578125,5.8343099 8.22265625,6.53417969 C7.51953125,7.23404948 6.97102865,8.04622396 6.57714844,8.97070312 C6.18326823,9.89518229 5.98632812,10.8847656 5.98632812,11.9394531 C5.98632812,12.9941406 6.18326823,13.983724 6.57714844,14.9082031 C6.97102865,15.8326823 7.51953125,16.6448568 8.22265625,17.3447266 C8.92578125,18.0445964 9.73795573,18.593099 10.6591797,18.9902344 C11.5804036,19.3873698 12.5683594,19.5859375 13.6230469,19.5859375 Z M13.6230469,8.1015625 C13.4277344,8.1015625 13.2633464,8.03320312 13.1298828,7.89648438 C12.9964193,7.75976562 12.9296875,7.59375 12.9296875,7.3984375 L12.9296875,0.787109375 C12.9296875,0.591796875 12.9964193,0.42578125 13.1298828,0.2890625 C13.2633464,0.15234375 13.4277344,0.083984375 13.6230469,0.083984375 C13.8183594,0.083984375 13.984375,0.15234375 14.1210938,0.2890625 C14.2578125,0.42578125 14.3261719,0.591796875 14.3261719,0.787109375 L14.3261719,7.3984375 C14.3261719,7.59375 14.2578125,7.75976562 14.1210938,7.89648438 C13.984375,8.03320312 13.8183594,8.1015625 13.6230469,8.1015625 Z M2.45117188,12.6621094 C2.25585938,12.6621094 2.08984375,12.59375 1.953125,12.4570312 C1.81640625,12.3203125 1.74804688,12.1542969 1.74804688,11.9589844 C1.74804688,11.7636719 1.81640625,11.5992839 1.953125,11.4658203 C2.08984375,11.3323568 2.25585938,11.265625 2.45117188,11.265625 L9.0625,11.265625 C9.2578125,11.265625 9.42382812,11.3323568 9.56054688,11.4658203 C9.69726562,11.5992839 9.765625,11.7636719 9.765625,11.9589844 C9.765625,12.1542969 9.69726562,12.3203125 9.56054688,12.4570312 C9.42382812,12.59375 9.2578125,12.6621094 9.0625,12.6621094 L2.45117188,12.6621094 Z M13.6230469,23.8339844 C13.4277344,23.8339844 13.2633464,23.765625 13.1298828,23.6289062 C12.9964193,23.4921875 12.9296875,23.3261719 12.9296875,23.1308594 L12.9296875,16.5195312 C12.9296875,16.3242188 12.9964193,16.1598307 13.1298828,16.0263672 C13.2633464,15.8929036 13.4277344,15.8261719 13.6230469,15.8261719 C13.8183594,15.8261719 13.984375,15.8929036 14.1210938,16.0263672 C14.2578125,16.1598307 14.3261719,16.3242188 14.3261719,16.5195312 L14.3261719,23.1308594 C14.3261719,23.3261719 14.2578125,23.4921875 14.1210938,23.6289062 C13.984375,23.765625 13.8183594,23.8339844 13.6230469,23.8339844 Z M18.1835938,12.6621094 C17.9882812,12.6621094 17.8222656,12.59375 17.6855469,12.4570312 C17.5488281,12.3203125 17.4804688,12.1542969 17.4804688,11.9589844 C17.4804688,11.7636719 17.5488281,11.5992839 17.6855469,11.4658203 C17.8222656,11.3323568 17.9882812,11.265625 18.1835938,11.265625 L24.7949219,11.265625 C24.9902344,11.265625 25.15625,11.3323568 25.2929688,11.4658203 C25.4296875,11.5992839 25.4980469,11.7636719 25.4980469,11.9589844 C25.4980469,12.1542969 25.4296875,12.3203125 25.2929688,12.4570312 C25.15625,12.59375 24.9902344,12.6621094 24.7949219,12.6621094 L18.1835938,12.6621094 Z" id="Shape"></path>
        </g>
    </g>
</svg>