<?xml version="1.0" encoding="UTF-8"?>
<svg width="24px" height="19px" viewBox="0 0 24 19" version="1.1" xmlns="http://www.w3.org/2000/svg" xmlns:xlink="http://www.w3.org/1999/xlink">
    <title>Shape</title>
    <g id="Page-1" stroke="none" stroke-width="1" fill="none" fill-rule="evenodd">
        <g id="􂇏-􀴊-􀦇-􀨨-􀏃-􀥄" transform="translate(-2, -26)" fill="#000000" fill-rule="nonzero">
            <path d="M6.25,33.7617188 C5.94401042,33.7617188 5.72591146,33.6933594 5.59570312,33.5566406 C5.46549479,33.4199219 5.40039062,33.1953125 5.40039062,32.8828125 L5.40039062,30.7539062 C5.40039062,30.4414062 5.46549479,30.2167969 5.59570312,30.0800781 C5.72591146,29.9433594 5.94401042,29.875 6.25,29.875 L21.7578125,29.875 C22.0638021,29.875 22.2835286,29.9433594 22.4169922,30.0800781 C22.5504557,30.2167969 22.6171875,30.4414062 22.6171875,30.7539062 L22.6171875,32.8828125 C22.6171875,33.1953125 22.5504557,33.4199219 22.4169922,33.5566406 C22.2835286,33.6933594 22.0638021,33.7617188 21.7578125,33.7617188 L6.25,33.7617188 Z M5.55664062,44.9433594 C4.53450521,44.9433594 3.76790365,44.6910807 3.25683594,44.1865234 C2.74576823,43.6819661 2.49023438,42.9283854 2.49023438,41.9257812 L2.49023438,29.9921875 C2.49023438,28.9830729 2.74576823,28.226237 3.25683594,27.7216797 C3.76790365,27.2171224 4.53450521,26.9648438 5.55664062,26.9648438 L22.4511719,26.9648438 C23.4798177,26.9648438 24.2480469,27.21875 24.7558594,27.7265625 C25.2636719,28.234375 25.5175781,28.9895833 25.5175781,29.9921875 L25.5175781,41.9257812 C25.5175781,42.9283854 25.2636719,43.6819661 24.7558594,44.1865234 C24.2480469,44.6910807 23.4798177,44.9433594 22.4511719,44.9433594 L5.55664062,44.9433594 Z M5.57617188,43.3710938 L22.4316406,43.3710938 C22.9134115,43.3710938 23.2861328,43.242513 23.5498047,42.9853516 C23.8134766,42.7281901 23.9453125,42.3457031 23.9453125,41.8378906 L23.9453125,30.0800781 C23.9453125,29.5722656 23.8134766,29.188151 23.5498047,28.9277344 C23.2861328,28.6673177 22.9134115,28.5371094 22.4316406,28.5371094 L5.57617188,28.5371094 C5.08789062,28.5371094 4.71354167,28.6673177 4.453125,28.9277344 C4.19270833,29.188151 4.0625,29.5722656 4.0625,30.0800781 L4.0625,41.8378906 C4.0625,42.3457031 4.19270833,42.7281901 4.453125,42.9853516 C4.71354167,43.242513 5.08789062,43.3710938 5.57617188,43.3710938 Z" id="Shape"></path>
        </g>
    </g>
</svg>