<?xml version="1.0" encoding="UTF-8"?>
<svg width="24px" height="19px" viewBox="0 0 24 19" version="1.1" xmlns="http://www.w3.org/2000/svg" xmlns:xlink="http://www.w3.org/1999/xlink">
    <title>uxnote-icon-tab</title>
    <g id="Page-1" stroke="none" stroke-width="1" fill="none" fill-rule="evenodd">
        <path d="M14.5722656,17.6835938 L14.5722656,2.25390625 L16.1054688,2.25390625 L16.1054688,17.6835938 L14.5722656,17.6835938 Z M4.61132812,18.9433594 C3.29622396,18.9433594 2.28059896,18.5852865 1.56445312,17.8691406 C0.848307292,17.1529948 0.490234375,16.1373698 0.490234375,14.8222656 L0.490234375,5.09570312 C0.490234375,3.78059896 0.848307292,2.76334635 1.56445312,2.04394531 C2.28059896,1.32454427 3.29622396,0.96484375 4.61132812,0.96484375 L19.640625,0.96484375 C20.8710938,0.96484375 21.8248698,1.32454427 22.5019531,2.04394531 C23.1790365,2.76334635 23.5175781,3.78059896 23.5175781,5.09570312 L23.5175781,14.8222656 C23.5175781,16.1373698 23.1790365,17.1529948 22.5019531,17.8691406 C21.8248698,18.5852865 20.8710938,18.9433594 19.640625,18.9433594 L4.61132812,18.9433594 Z M4.62109375,17.3710938 L19.3867188,17.3710938 C20.2005208,17.3710938 20.8304036,17.148112 21.2763672,16.7021484 C21.7223307,16.2561849 21.9453125,15.6295573 21.9453125,14.8222656 L21.9453125,5.09570312 C21.9453125,4.28841146 21.7223307,3.66015625 21.2763672,3.2109375 C20.8304036,2.76171875 20.2005208,2.53710938 19.3867188,2.53710938 L4.62109375,2.53710938 C3.80729167,2.53710938 3.17740885,2.76171875 2.73144531,3.2109375 C2.28548177,3.66015625 2.0625,4.28841146 2.0625,5.09570312 L2.0625,14.8222656 C2.0625,15.6295573 2.28548177,16.2561849 2.73144531,16.7021484 C3.17740885,17.148112 3.80729167,17.3710938 4.62109375,17.3710938 Z M19.953125,7.21484375 L18.1074219,7.21484375 C17.983724,7.21484375 17.8795573,7.17415365 17.7949219,7.09277344 C17.7102865,7.01139323 17.6679688,6.90559896 17.6679688,6.77539062 L17.6679688,4.94921875 C17.6679688,4.64973958 17.8144531,4.5 18.1074219,4.5 L19.953125,4.5 C20.2526042,4.5 20.4023438,4.64973958 20.4023438,4.94921875 L20.4023438,6.77539062 C20.4023438,7.06835938 20.2526042,7.21484375 19.953125,7.21484375 Z M19.953125,11.3164062 L18.1074219,11.3164062 C17.983724,11.3164062 17.8795573,11.2740885 17.7949219,11.1894531 C17.7102865,11.1048177 17.6679688,11.000651 17.6679688,10.8769531 L17.6679688,9.03125 C17.6679688,8.90755208 17.7086589,8.80175781 17.7900391,8.71386719 C17.8714193,8.62597656 17.9772135,8.58203125 18.1074219,8.58203125 L19.953125,8.58203125 C20.0898438,8.58203125 20.1988932,8.62597656 20.2802734,8.71386719 C20.3616536,8.80175781 20.4023438,8.90755208 20.4023438,9.03125 L20.4023438,10.8769531 C20.4023438,11.000651 20.360026,11.1048177 20.2753906,11.1894531 C20.1907552,11.2740885 20.0833333,11.3164062 19.953125,11.3164062 Z M19.953125,15.3984375 L18.1074219,15.3984375 C17.983724,15.3984375 17.8795573,15.3577474 17.7949219,15.2763672 C17.7102865,15.194987 17.6679688,15.0891927 17.6679688,14.9589844 L17.6679688,13.1328125 C17.6679688,12.8333333 17.8144531,12.6835938 18.1074219,12.6835938 L19.953125,12.6835938 C20.2526042,12.6835938 20.4023438,12.8333333 20.4023438,13.1328125 L20.4023438,14.9589844 C20.4023438,15.2519531 20.2526042,15.3984375 19.953125,15.3984375 Z" id="uxnote-icon-tab" fill="#000000" fill-rule="nonzero"></path>
    </g>
</svg>