<?xml version="1.0" encoding="UTF-8"?>
<svg width="25px" height="18px" viewBox="0 0 25 18" version="1.1" xmlns="http://www.w3.org/2000/svg" xmlns:xlink="http://www.w3.org/1999/xlink">
    <title>uxnote-icon-mail</title>
    <g id="Page-1" stroke="none" stroke-width="1" fill="none" fill-rule="evenodd">
        <path d="M3.55664062,17.3769531 C2.54101562,17.3769531 1.77604167,17.1230469 1.26171875,16.6152344 C0.747395833,16.1074219 0.490234375,15.3522135 0.490234375,14.3496094 L0.490234375,3.56835938 C0.490234375,2.55924479 0.734375,1.80240885 1.22265625,1.29785156 C1.7109375,0.793294271 2.39127604,0.541015625 3.26367188,0.541015625 L20.9882812,0.541015625 C22.0039062,0.541015625 22.7688802,0.793294271 23.2832031,1.29785156 C23.797526,1.80240885 24.0546875,2.55924479 24.0546875,3.56835938 L24.0546875,14.3496094 C24.0546875,15.3522135 23.8105469,16.1074219 23.3222656,16.6152344 C22.8339844,17.1230469 22.1536458,17.3769531 21.28125,17.3769531 L3.55664062,17.3769531 Z M3.49804688,15.8828125 L21.0371094,15.8828125 C21.5253906,15.8828125 21.9013672,15.7526042 22.1650391,15.4921875 C22.4287109,15.2317708 22.5605469,14.8509115 22.5605469,14.3496094 L22.5605469,3.56835938 C22.5605469,3.06705729 22.4287109,2.68619792 22.1650391,2.42578125 C21.9013672,2.16536458 21.5253906,2.03515625 21.0371094,2.03515625 L3.49804688,2.03515625 C3.01627604,2.03515625 2.64355469,2.16536458 2.37988281,2.42578125 C2.11621094,2.68619792 1.984375,3.06380208 1.984375,3.55859375 L1.984375,14.3398438 C1.984375,14.8476562 2.11621094,15.2317708 2.37988281,15.4921875 C2.64355469,15.7526042 3.01627604,15.8828125 3.49804688,15.8828125 Z M12.2675781,11.5273438 C11.9550781,11.5273438 11.6490885,11.4671224 11.3496094,11.3466797 C11.0501302,11.226237 10.7604167,11.0390625 10.4804688,10.7851562 L1.29101562,2.51367188 L2.30664062,1.48828125 L11.3300781,9.62304688 C11.6295573,9.88997396 11.9420573,10.0234375 12.2675781,10.0234375 C12.5996094,10.0234375 12.9121094,9.88997396 13.2050781,9.62304688 L22.2285156,1.48828125 L23.2441406,2.51367188 L14.0546875,10.7851562 C13.7747396,11.0390625 13.485026,11.226237 13.1855469,11.3466797 C12.8860677,11.4671224 12.5800781,11.5273438 12.2675781,11.5273438 Z M2.453125,16.1269531 L1.4375,15.1015625 L8.37109375,8.16796875 L9.38671875,9.18359375 L2.453125,16.1269531 Z M22.1015625,16.1367188 L15.1484375,9.18359375 L16.1738281,8.16796875 L23.1171875,15.1113281 L22.1015625,16.1367188 Z" id="uxnote-icon-mail" fill="#000000" fill-rule="nonzero"></path>
    </g>
</svg>