<?xml version="1.0" encoding="UTF-8"?>
<svg width="24px" height="19px" viewBox="0 0 24 19" version="1.1" xmlns="http://www.w3.org/2000/svg" xmlns:xlink="http://www.w3.org/1999/xlink">
    <title>uxnote-icon-rect</title>
    <g id="Page-1" stroke="none" stroke-width="1" fill="none" fill-rule="evenodd">
        <path d="M0.490234375,6.12109375 L0.490234375,4.00195312 C0.490234375,2.99283854 0.745768229,2.2360026 1.25683594,1.73144531 C1.76790365,1.22688802 2.53450521,0.974609375 3.55664062,0.974609375 L5.59765625,0.974609375 L5.59765625,2.546875 L3.57617188,2.546875 C3.08789062,2.546875 2.71354167,2.67545573 2.453125,2.93261719 C2.19270833,3.18977865 2.0625,3.57226562 2.0625,4.08007812 L2.0625,6.12109375 L0.490234375,6.12109375 Z M0.490234375,12.46875 L0.490234375,7.45898438 L2.0625,7.45898438 L2.0625,12.46875 L0.490234375,12.46875 Z M3.55664062,18.953125 C2.53450521,18.953125 1.76790365,18.7008464 1.25683594,18.1962891 C0.745768229,17.6917318 0.490234375,16.9348958 0.490234375,15.9257812 L0.490234375,13.8066406 L2.0625,13.8066406 L2.0625,15.8476562 C2.0625,16.3554688 2.19270833,16.7379557 2.453125,16.9951172 C2.71354167,17.2522786 3.08789062,17.3808594 3.57617188,17.3808594 L5.59765625,17.3808594 L5.59765625,18.953125 L3.55664062,18.953125 Z M6.93554688,18.953125 L6.93554688,17.3808594 L11.3398438,17.3808594 L11.3398438,18.953125 L6.93554688,18.953125 Z M12.6679688,18.953125 L12.6679688,17.3808594 L17.0722656,17.3808594 L17.0722656,18.953125 L12.6679688,18.953125 Z M20.4511719,18.953125 L18.4101562,18.953125 L18.4101562,17.3808594 L20.4316406,17.3808594 C20.9199219,17.3808594 21.2942708,17.2522786 21.5546875,16.9951172 C21.8151042,16.7379557 21.9453125,16.3554688 21.9453125,15.8476562 L21.9453125,13.8066406 L23.5175781,13.8066406 L23.5175781,15.9257812 C23.5175781,16.9348958 23.2620443,17.6917318 22.7509766,18.1962891 C22.2399089,18.7008464 21.4733073,18.953125 20.4511719,18.953125 Z M23.5175781,6.12109375 L21.9453125,6.12109375 L21.9453125,4.08007812 C21.9453125,3.57226562 21.8151042,3.18977865 21.5546875,2.93261719 C21.2942708,2.67545573 20.9199219,2.546875 20.4316406,2.546875 L18.4101562,2.546875 L18.4101562,0.974609375 L20.4511719,0.974609375 C21.4733073,0.974609375 22.2399089,1.22688802 22.7509766,1.73144531 C23.2620443,2.2360026 23.5175781,2.99283854 23.5175781,4.00195312 L23.5175781,6.12109375 Z M23.5175781,12.46875 L21.9453125,12.46875 L21.9453125,7.45898438 L23.5175781,7.45898438 L23.5175781,12.46875 Z M6.93554688,2.546875 L6.93554688,0.974609375 L11.3398438,0.974609375 L11.3398438,2.546875 L6.93554688,2.546875 Z M12.6679688,2.546875 L12.6679688,0.974609375 L17.0722656,0.974609375 L17.0722656,2.546875 L12.6679688,2.546875 Z" id="uxnote-icon-rect" fill="#000000" fill-rule="nonzero"></path>
    </g>
</svg>