<?xml version="1.0" encoding="UTF-8"?>
<svg width="18px" height="23px" viewBox="0 0 18 23" version="1.1" xmlns="http://www.w3.org/2000/svg" xmlns:xlink="http://www.w3.org/1999/xlink">
    <title>uxnote-icon-download</title>
    <g id="Page-1" stroke="none" stroke-width="1" fill="none" fill-rule="evenodd">
        <path d="M5.84179688,5.04492188 C5.63997396,5.04492188 5.47233073,4.97981771 5.33886719,4.84960938 C5.20540365,4.71940104 5.13867188,4.55664062 5.13867188,4.36132812 C5.13867188,4.17252604 5.21679688,4 5.37304688,3.84375 L8.5859375,0.73828125 C8.69010417,0.640625 8.78613281,0.573893229 8.87402344,0.538085938 C8.96191406,0.502278646 9.0546875,0.484375 9.15234375,0.484375 C9.25651042,0.484375 9.35253906,0.502278646 9.44042969,0.538085938 C9.52832031,0.573893229 9.62109375,0.640625 9.71875,0.73828125 L12.9414062,3.84375 C13.0911458,4 13.1660156,4.17252604 13.1660156,4.36132812 C13.1660156,4.55664062 13.0976562,4.71940104 12.9609375,4.84960938 C12.8242188,4.97981771 12.6549479,5.04492188 12.453125,5.04492188 C12.2382812,5.04492188 12.0625,4.96679688 11.9257812,4.81054688 L10.421875,3.19921875 L9.15234375,1.8515625 L7.89257812,3.19921875 L6.37890625,4.81054688 C6.2421875,4.96679688 6.06315104,5.04492188 5.84179688,5.04492188 Z M9.15234375,14.7714844 C8.94401042,14.7714844 8.76334635,14.6966146 8.61035156,14.546875 C8.45735677,14.3971354 8.38085938,14.2213542 8.38085938,14.0195312 L8.38085938,4.078125 L8.49804688,1.45117188 C8.51106771,1.26888021 8.57942708,1.11425781 8.703125,0.987304688 C8.82682292,0.860351562 8.9765625,0.796875 9.15234375,0.796875 C9.33463542,0.796875 9.48763021,0.860351562 9.61132812,0.987304688 C9.73502604,1.11425781 9.80338542,1.26888021 9.81640625,1.45117188 L9.93359375,4.078125 L9.93359375,14.0195312 C9.93359375,14.2213542 9.85709635,14.3971354 9.70410156,14.546875 C9.55110677,14.6966146 9.3671875,14.7714844 9.15234375,14.7714844 Z M4.57226562,22.4179688 C3.26367188,22.4179688 2.2561849,22.0647786 1.54980469,21.3583984 C0.843424479,20.6520182 0.490234375,19.6445312 0.490234375,18.3359375 L0.490234375,10.8164062 C0.490234375,9.50130208 0.843424479,8.4921875 1.54980469,7.7890625 C2.2561849,7.0859375 3.26367188,6.734375 4.57226562,6.734375 L6.54492188,6.734375 L6.54492188,8.30664062 L4.57226562,8.30664062 C3.77148438,8.30664062 3.15299479,8.52311198 2.71679688,8.95605469 C2.28059896,9.3889974 2.0625,10.0091146 2.0625,10.8164062 L2.0625,18.3359375 C2.0625,19.1367188 2.28059896,19.7552083 2.71679688,20.1914062 C3.15299479,20.6276042 3.77148438,20.8457031 4.57226562,20.8457031 L13.7324219,20.8457031 C14.5397135,20.8457031 15.1614583,20.6276042 15.5976562,20.1914062 C16.0338542,19.7552083 16.2519531,19.1367188 16.2519531,18.3359375 L16.2519531,10.8164062 C16.2519531,10.0091146 16.0338542,9.3889974 15.5976562,8.95605469 C15.1614583,8.52311198 14.5397135,8.30664062 13.7324219,8.30664062 L11.7597656,8.30664062 L11.7597656,6.734375 L13.7324219,6.734375 C15.047526,6.734375 16.0582682,7.0859375 16.7646484,7.7890625 C17.4710286,8.4921875 17.8242188,9.50130208 17.8242188,10.8164062 L17.8242188,18.3359375 C17.8242188,19.6445312 17.4710286,20.6520182 16.7646484,21.3583984 C16.0582682,22.0647786 15.047526,22.4179688 13.7324219,22.4179688 L4.57226562,22.4179688 Z" id="uxnote-icon-download" fill="#000000" fill-rule="nonzero"></path>
    </g>
</svg>