<?xml version="1.0" encoding="UTF-8"?>
<svg width="18px" height="22px" viewBox="0 0 18 22" version="1.1" xmlns="http://www.w3.org/2000/svg" xmlns:xlink="http://www.w3.org/1999/xlink">
    <title>uxnote-icon-upload</title>
    <g id="Page-1" stroke="none" stroke-width="1" fill="none" fill-rule="evenodd">
        <path d="M4.57226562,21.4179688 C3.26367188,21.4179688 2.2561849,21.0647786 1.54980469,20.3583984 C0.843424479,19.6520182 0.490234375,18.6445312 0.490234375,17.3359375 L0.490234375,9.81640625 C0.490234375,8.50130208 0.843424479,7.4921875 1.54980469,6.7890625 C2.2561849,6.0859375 3.26367188,5.734375 4.57226562,5.734375 L6.54492188,5.734375 L6.54492188,7.30664062 L4.57226562,7.30664062 C3.77148438,7.30664062 3.15299479,7.52473958 2.71679688,7.9609375 C2.28059896,8.39713542 2.0625,9.015625 2.0625,9.81640625 L2.0625,17.3359375 C2.0625,18.1367188 2.28059896,18.7552083 2.71679688,19.1914062 C3.15299479,19.6276042 3.77148438,19.8457031 4.57226562,19.8457031 L13.7324219,19.8457031 C14.5397135,19.8457031 15.1614583,19.6276042 15.5976562,19.1914062 C16.0338542,18.7552083 16.2519531,18.1367188 16.2519531,17.3359375 L16.2519531,9.81640625 C16.2519531,9.015625 16.0338542,8.39713542 15.5976562,7.9609375 C15.1614583,7.52473958 14.5397135,7.30664062 13.7324219,7.30664062 L11.7597656,7.30664062 L11.7597656,5.734375 L13.7324219,5.734375 C15.047526,5.734375 16.0582682,6.0859375 16.7646484,6.7890625 C17.4710286,7.4921875 17.8242188,8.50130208 17.8242188,9.81640625 L17.8242188,17.3359375 C17.8242188,18.6445312 17.4710286,19.6520182 16.7646484,20.3583984 C16.0582682,21.0647786 15.047526,21.4179688 13.7324219,21.4179688 L4.57226562,21.4179688 Z M9.16210938,0.5390625 C9.37044271,0.5390625 9.55110677,0.613932292 9.70410156,0.763671875 C9.85709635,0.913411458 9.93359375,1.08919271 9.93359375,1.29101562 L9.93359375,11.2226562 L9.81640625,13.859375 C9.80338542,14.0351562 9.73502604,14.188151 9.61132812,14.3183594 C9.48763021,14.4485677 9.33789062,14.5136719 9.16210938,14.5136719 C8.97981771,14.5136719 8.82682292,14.4485677 8.703125,14.3183594 C8.57942708,14.188151 8.51106771,14.0351562 8.49804688,13.859375 L8.38085938,11.2226562 L8.38085938,1.29101562 C8.38085938,1.08919271 8.45735677,0.913411458 8.61035156,0.763671875 C8.76334635,0.613932292 8.94726562,0.5390625 9.16210938,0.5390625 Z M5.84179688,10.265625 C6.06315104,10.265625 6.2421875,10.34375 6.37890625,10.5 L7.89257812,12.1113281 L9.16210938,13.4492188 L10.421875,12.1113281 L11.9355469,10.5 C12.0657552,10.34375 12.2415365,10.265625 12.4628906,10.265625 C12.6647135,10.265625 12.8339844,10.3307292 12.9707031,10.4609375 C13.1074219,10.5911458 13.1757812,10.7539062 13.1757812,10.9492188 C13.1757812,11.1380208 13.0976562,11.3105469 12.9414062,11.4667969 L9.71875,14.5722656 C9.62109375,14.6699219 9.52832031,14.7366536 9.44042969,14.7724609 C9.35253906,14.8082682 9.25976562,14.8261719 9.16210938,14.8261719 C9.05794271,14.8261719 8.96191406,14.8082682 8.87402344,14.7724609 C8.78613281,14.7366536 8.69335938,14.6699219 8.59570312,14.5722656 L5.37304688,11.4667969 C5.21679688,11.3105469 5.13867188,11.1380208 5.13867188,10.9492188 C5.13867188,10.7539062 5.20540365,10.5911458 5.33886719,10.4609375 C5.47233073,10.3307292 5.63997396,10.265625 5.84179688,10.265625 Z" id="uxnote-icon-upload" fill="#000000" fill-rule="nonzero"></path>
    </g>
</svg>