<?xml version="1.0" encoding="UTF-8"?>
<svg width="69px" height="20px" viewBox="0 0 69 20" version="1.1" xmlns="http://www.w3.org/2000/svg" xmlns:xlink="http://www.w3.org/1999/xlink">
    <title>Frame</title>
    <g id="Frame" stroke="none" fill="none" fill-rule="evenodd">
        <path d="M15.5141351,15.6336045 C15.0749867,15.7571123 13.3484743,16.0588732 13.7282884,18.0055773 C13.9814979,19.3033801 15.5809176,19.5099042 18.5265475,18.6251498 C24.7057419,17.0554179 32.6579091,16.101702 42.3830492,15.7640022 C56.9707594,15.2574524 60.5270025,16.163136 67.0775991,16.9762338 C68.0521554,17.1558296 69.5219587,16.163136 68.0521554,15.0188646 C63.2928783,12.8874893 28.8776434,11.9999303 15.5141351,15.6336045 Z" id="Path-Copy" fill="#9E81FF"></path>
        <g id="uxnote-logo-copy-2" stroke-width="1" transform="translate(-5, -4)">
            <path d="M11.1386719,19.2441406 C14.8007813,19.2441406 17.203125,17.1640625 17.203125,14 L17.203125,6.55859375 C17.203125,5.3671875 16.5488281,4.69335938 15.40625,4.69335938 C14.2734375,4.69335938 13.6191406,5.3671875 13.6191406,6.55859375 L13.6191406,13.6191406 C13.6191406,15.2597656 12.7304688,16.2363281 11.1386719,16.2363281 C9.53710938,16.2363281 8.6484375,15.2597656 8.6484375,13.6191406 L8.6484375,6.55859375 C8.6484375,5.3671875 7.99414062,4.69335938 6.86132812,4.69335938 C5.72851562,4.69335938 5.06445312,5.3671875 5.06445312,6.55859375 L5.06445312,14 C5.06445312,17.1640625 7.46679688,19.2441406 11.1386719,19.2441406 Z" id="Path" fill="#000000" fill-rule="nonzero"></path>
            <path d="M18.8613631,11.140625 C19.2434527,11.140625 19.4404676,11.0348981 19.7628556,10.5961316 L20.8494228,9.12124174 L20.8912139,9.12124174 L22.0195721,10.6384224 C22.2703183,10.9767483 22.455393,11.140625 22.8852437,11.140625 C23.458378,11.140625 23.8941989,10.8287307 23.8941989,10.3106691 C23.8941989,10.0992153 23.816587,9.91947963 23.655393,9.72917126 L22.3061392,8.11683645 L23.6076318,6.61022852 C23.8344974,6.35648403 23.9121094,6.171462 23.9121094,5.93357654 C23.9121094,5.45251927 23.5240497,5.140625 22.9330049,5.140625 C22.5330049,5.140625 22.3061392,5.29392896 22.0136019,5.71155011 L21.016587,7.10185848 L20.9747959,7.10185848 L19.9598706,5.70626377 C19.6613631,5.28335628 19.4344974,5.140625 18.9867362,5.140625 C18.4136019,5.140625 17.9837512,5.48952368 17.9837512,5.9652946 C17.9837512,6.18732104 18.055393,6.37234306 18.2106168,6.55207874 L19.5598706,8.1591272 L18.216587,9.72388491 C17.9956915,9.97762941 17.9121094,10.1520787 17.9121094,10.3846779 C17.9121094,10.8340171 18.3061392,11.140625 18.8613631,11.140625 Z" id="Path" fill="#9E81FF" fill-rule="nonzero"></path>
            <path d="M28.203125,19.2148438 C29.2675781,19.2148438 29.9023437,18.5800781 29.9023437,17.4375 L29.9023437,10.7285156 L29.9804688,10.7285156 L35.4101562,18.21875 C35.9277344,18.9316406 36.40625,19.2148438 37.1289063,19.2148438 C38.2128906,19.2148438 38.8183594,18.6191406 38.8183594,17.5351563 L38.8183594,6.47070313 C38.8183594,5.328125 38.1933594,4.69335938 37.1191406,4.69335938 C36.0546875,4.69335938 35.4199219,5.328125 35.4199219,6.47070313 L35.4199219,13.1015625 L35.3417969,13.1015625 L29.9511719,5.68945313 C29.4140625,4.98632812 28.9257812,4.69335938 28.2421875,4.69335938 C27.1289062,4.69335938 26.5039062,5.2890625 26.5039062,6.39257812 L26.5039062,17.4375 C26.5039062,18.5800781 27.1289062,19.2148438 28.203125,19.2148438 Z" id="Path" fill="#000000" fill-rule="nonzero"></path>
            <path d="M45.8300781,19.2539062 C49.1796875,19.2539062 51.2695312,17.2324219 51.2695312,13.6777344 C51.2695312,10.1914062 49.1503906,8.11132812 45.8300781,8.11132812 C42.5292969,8.11132812 40.390625,10.2011719 40.390625,13.6777344 C40.390625,17.2226562 42.4804688,19.2539062 45.8300781,19.2539062 Z M45.8300781,16.7148438 C44.6386719,16.7148438 43.90625,15.6308594 43.90625,13.6875 C43.90625,11.7734375 44.6582031,10.6503906 45.8300781,10.6503906 C47.0117188,10.6503906 47.7636719,11.7734375 47.7636719,13.6875 C47.7636719,15.6308594 47.0117188,16.7148438 45.8300781,16.7148438 Z" id="Shape" fill="#000000" fill-rule="nonzero"></path>
            <path d="M53.4765625,16.1484375 C53.4765625,18.1210938 54.5214844,19.1367188 56.5722656,19.1367188 L56.6601562,19.1367188 C57.9980469,19.1367188 59.0917969,18.6289062 59.0917969,17.6230469 C59.0917969,16.8222656 58.6425781,16.4804688 57.8710938,16.3925781 L57.65625,16.3632813 C57.1679688,16.3144531 56.9433594,16.0507812 56.9433594,15.3867188 L56.9433594,10.9238281 L57.7832031,10.9238281 C58.5546875,10.9238281 59.0625,10.4160156 59.0625,9.64453125 C59.0625,8.87304688 58.5546875,8.36523437 57.7832031,8.36523437 L56.9433594,8.36523437 L56.9433594,7.515625 C56.9433594,6.39257812 56.3085938,5.71875 55.2148438,5.71875 C54.1113281,5.71875 53.4765625,6.39257812 53.4765625,7.515625 L53.4765625,8.36523437 L53.0957031,8.36523437 C52.3242188,8.36523437 51.8164062,8.86328125 51.8164062,9.64453125 C51.8164062,10.4160156 52.3242188,10.9238281 53.0957031,10.9238281 L53.4765625,10.9238281 L53.4765625,16.1484375 Z" id="Path" fill="#000000" fill-rule="nonzero"></path>
            <path d="M65.3222656,19.2539062 C67.4414062,19.2539062 69.1601562,18.5019531 69.8632812,17.2519531 C70.0195312,16.9980469 70.0976562,16.734375 70.0976562,16.4707031 C70.0976562,15.7089844 69.5019531,15.2597656 68.7988281,15.2597656 C68.3691406,15.2597656 68.0859375,15.3769531 67.7246094,15.71875 C66.953125,16.5 66.2988281,16.8027344 65.3515625,16.8027344 C64.1015625,16.8027344 63.2519531,15.9238281 63.2519531,14.6347656 L63.2519531,14.4394531 L69.0332031,14.4394531 C69.9316406,14.4394531 70.4296875,13.9511719 70.4296875,13.0722656 C70.4296875,10.2011719 68.3496094,8.11132812 65.1855469,8.11132812 C61.9433594,8.11132812 59.8925781,10.2890625 59.8925781,13.7363281 C59.8925781,17.1933594 61.9140625,19.2539062 65.3222656,19.2539062 Z M63.3007812,12.4667969 C63.3886719,11.3535156 64.1796875,10.5722656 65.2539062,10.5722656 C66.3378906,10.5722656 67.109375,11.3144531 67.1679688,12.4667969 L63.3007812,12.4667969 Z" id="Shape" fill="#000000" fill-rule="nonzero"></path>
        </g>
        <path d="M15.5141351,15.6336045 C15.0749867,15.7571123 13.3484743,16.0588732 13.7282884,18.0055773 C13.9814979,19.3033801 15.5809176,19.5099042 18.5265475,18.6251498 C24.7057419,17.0554179 32.6579091,16.101702 42.3830492,15.7640022 C56.9707594,15.2574524 60.5270025,16.163136 67.0775991,16.9762338 C68.0521554,17.1558296 69.5219587,16.163136 68.0521554,15.0188646 C63.2928783,12.8874893 28.8776434,11.9999303 15.5141351,15.6336045 Z" id="Path-Copy" fill-opacity="0.3" fill="#9E81FF"></path>
    </g>
</svg>